<?xml version="1.0" encoding="utf-8"?>
<!-- Generator: Adobe Illustrator 24.1.1, SVG Export Plug-In . SVG Version: 6.00 Build 0)  -->
<svg version="1.1" id="Layer_1" xmlns="http://www.w3.org/2000/svg" xmlns:xlink="http://www.w3.org/1999/xlink" x="0px" y="0px"
	 viewBox="0 0 256 256" style="enable-background:new 0 0 256 256;" xml:space="preserve">
<style type="text/css">
	.st0{fill:#EB467D;}
	.st1{fill:#FFFFFF;}
	.st2{fill:#8CC63F;}
</style>
<g>
	<g>
		<path class="st2" d="M124.62,28c10.92-0.06,16.46,3.38,16.72,10.4c0.24,6.45-4.76,9.74-15.94,10.48
			C104.6,50.27,92.32,61.92,92.71,79.9c0.32,14.94,10.13,25.27,25.46,26.86c2.97,0.31,6.03,0.35,8.89,1.11
			c5.06,1.36,8.65,4.37,8.84,10.14c0.18,5.63-2.93,9.28-7.74,11.16c-4.05,1.58-8.5,2.11-12.72,3.26
			c-16.62,4.54-20.62,17.27-9.48,30.34c5.15,6.04,11.64,10.48,18.32,14.65c1.7,1.06,4.02,2.09,3.11,4.71
			c-0.8,2.28-3.05,2.61-5.18,2.68c-9.98,0.31-19.19-2.85-27.95-7.06C39.58,151.55,33.67,75.35,83.57,41.19
			C94.74,33.54,111.75,28.08,124.62,28z"/>
		<path class="st0" d="M164.13,131.13c11.23-7.36,17.63-17.85,18.83-31.47c1.35-15.37-1.8-29.24-13.51-40.44
			c-3.14-3-4.35-7.51-0.59-11.15c3.8-3.68,8.1-4.03,12.33-0.19c16.09,14.6,24.21,33.05,25.25,54.44
			c1.8,37.04-18.47,64.13-50.29,77.58c-1.28,0.54-2.58,1.02-3.91,1.42c-12.14,3.64-18.39-0.4-19.2-13.07
			c-1.19-18.66,2.29-36.3,12.8-52.17c5.98-9.04,12.11-17.98,17.01-27.7c1.4-2.79,3.76-4.88,7.28-4c3.19,0.79,4.11,3.43,4.39,6.36
			c0.5,5.18-0.56,10.05-2.56,14.85c-3.4,8.15-6.53,16.42-9.77,24.64C162.85,130.53,163.49,130.83,164.13,131.13z"/>
		<path class="st2" d="M126.22,99.05c-13.05,0.06-22.04-8.49-22.27-21.19c-0.21-11.83,9.22-20.94,21.7-20.98
			c12.34-0.03,21.31,8.53,21.35,20.38C147.04,89.86,138.33,98.99,126.22,99.05z"/>
	</g>
	<g>
		<path class="st2" d="M61.2,199.69h7.04l2.44,8.61l2.48-8.61h7.04l-4.6,13.33l2.01,5.82l6.02-19.15h8.33l-10.93,27.91h-6.37
			l-3.97-9.99l-3.93,9.99h-6.37l-10.93-27.91h8.3l6.06,19.15l1.93-5.82L61.2,199.69z"/>
		<path class="st2" d="M100.72,228c-1.81,0-3.42-0.28-4.84-0.84c-1.42-0.56-2.6-1.33-3.56-2.3c-0.96-0.97-1.68-2.08-2.18-3.34
			s-0.75-2.58-0.75-3.97c0-1.49,0.24-2.91,0.73-4.25c0.48-1.34,1.2-2.5,2.16-3.5c0.96-1,2.14-1.79,3.54-2.38
			c1.4-0.59,3.03-0.88,4.89-0.88c1.83,0,3.46,0.29,4.88,0.88c1.42,0.59,2.6,1.37,3.56,2.36c0.96,0.98,1.68,2.12,2.16,3.42
			c0.49,1.3,0.73,2.65,0.73,4.07c0,0.39-0.02,0.79-0.06,1.2c-0.04,0.41-0.09,0.77-0.14,1.08H97.33c0.08,1.1,0.48,1.89,1.22,2.38
			s1.53,0.73,2.4,0.73c0.81,0,1.58-0.18,2.3-0.55c0.72-0.37,1.2-0.88,1.43-1.53l6.33,1.81c-0.84,1.65-2.13,3-3.87,4.05
			C105.4,227.48,103.26,228,100.72,228z M104.02,215.07c-0.13-1-0.5-1.78-1.1-2.36c-0.6-0.58-1.38-0.87-2.32-0.87
			s-1.72,0.29-2.32,0.87c-0.6,0.58-0.97,1.36-1.1,2.36H104.02z"/>
		<path class="st0" d="M142.78,225.29c-1.99,1.68-4.29,2.52-6.88,2.52c-1.81,0-3.54-0.32-5.19-0.96c-1.65-0.64-3.09-1.58-4.33-2.81
			c-1.23-1.23-2.21-2.74-2.95-4.52c-0.73-1.78-1.1-3.81-1.1-6.09c0-1.97,0.37-3.79,1.1-5.48c0.73-1.69,1.74-3.16,3.03-4.4
			c1.28-1.24,2.8-2.23,4.54-2.95c1.74-0.72,3.62-1.08,5.64-1.08c1.26,0,2.46,0.14,3.62,0.41c1.15,0.28,2.22,0.68,3.2,1.22
			c0.98,0.54,1.87,1.18,2.65,1.93c0.79,0.75,1.43,1.59,1.93,2.54l-5.7,4.36c-0.55-1.1-1.38-1.99-2.48-2.65c-1.1-0.67-2.27-1-3.5-1
			c-0.92,0-1.76,0.18-2.52,0.55c-0.76,0.37-1.42,0.88-1.97,1.53c-0.55,0.66-0.98,1.44-1.3,2.34s-0.47,1.89-0.47,2.97
			c0,1.1,0.16,2.1,0.47,2.99c0.31,0.89,0.75,1.66,1.32,2.3c0.56,0.64,1.24,1.14,2.02,1.49c0.79,0.35,1.66,0.53,2.63,0.53
			c2.23,0,4.19-0.92,5.9-2.75h-4.84v-5.5h11.48v14.86h-6.33V225.29z"/>
		<path class="st0" d="M152.37,205.2v-6.29h7.47v6.29H152.37z M152.37,227.61v-20.68h7.47v20.68H152.37z"/>
		<path class="st0" d="M168.73,227.61l-6.96-20.68h7.67l3.7,14.82l3.73-14.82h6.96l-6.96,20.68H168.73z"/>
		<path class="st0" d="M195.23,228c-1.81,0-3.42-0.28-4.84-0.84c-1.42-0.56-2.6-1.33-3.56-2.3c-0.96-0.97-1.68-2.08-2.18-3.34
			c-0.5-1.26-0.75-2.58-0.75-3.97c0-1.49,0.24-2.91,0.73-4.25c0.49-1.34,1.21-2.5,2.16-3.5c0.96-1,2.14-1.79,3.54-2.38
			c1.4-0.59,3.03-0.88,4.9-0.88c1.83,0,3.46,0.29,4.87,0.88c1.41,0.59,2.6,1.37,3.56,2.36c0.96,0.98,1.68,2.12,2.16,3.42
			c0.48,1.3,0.73,2.65,0.73,4.07c0,0.39-0.02,0.79-0.06,1.2c-0.04,0.41-0.08,0.77-0.14,1.08h-14.51c0.08,1.1,0.48,1.89,1.22,2.38
			s1.53,0.73,2.4,0.73c0.81,0,1.58-0.18,2.3-0.55c0.72-0.37,1.2-0.88,1.44-1.53l6.33,1.81c-0.84,1.65-2.13,3-3.87,4.05
			C199.91,227.48,197.77,228,195.23,228z M198.53,215.07c-0.13-1-0.5-1.78-1.1-2.36c-0.6-0.58-1.38-0.87-2.32-0.87
			s-1.72,0.29-2.32,0.87c-0.6,0.58-0.97,1.36-1.1,2.36H198.53z"/>
	</g>
</g>
</svg>
